<svg width="22" height="22" viewBox="0 0 22 22" fill="none" xmlns="http://www.w3.org/2000/svg">
<path d="M20.9688 5.5H20.625V3.4375C20.625 1.5125 16.3625 0 11 0C5.6375 0 1.375 1.5125 1.375 3.4375V5.5H1.03125C0.461914 5.5 0 5.96148 0 6.53125V9.96875C0 10.5381 0.461914 11 1.03125 11H1.375V17.875C1.375 18.6343 1.99074 19.25 2.75 19.25V20.625C2.75 21.3843 3.36574 22 4.125 22H5.5C6.25926 22 6.875 21.3843 6.875 20.625V19.25H15.125V20.625C15.125 21.3843 15.7407 22 16.5 22H17.875C18.6343 22 19.25 21.3843 19.25 20.625V19.25H19.525C20.2125 19.25 20.625 18.7 20.625 18.15V11H20.9688C21.5381 11 22 10.5381 22 9.96875V6.53125C22 5.96148 21.5381 5.5 20.9688 5.5ZM4.8125 17.1875C4.05324 17.1875 3.4375 16.5718 3.4375 15.8125C3.4375 15.0532 4.05324 14.4375 4.8125 14.4375C5.57176 14.4375 6.1875 15.0532 6.1875 15.8125C6.1875 16.5718 5.57176 17.1875 4.8125 17.1875ZM5.5 12.375C4.74074 12.375 4.125 11.7593 4.125 11V5.5C4.125 4.74074 4.74074 4.125 5.5 4.125H16.5C17.2593 4.125 17.875 4.74074 17.875 5.5V11C17.875 11.7593 17.2593 12.375 16.5 12.375H5.5ZM17.1875 17.1875C16.4282 17.1875 15.8125 16.5718 15.8125 15.8125C15.8125 15.0532 16.4282 14.4375 17.1875 14.4375C17.9468 14.4375 18.5625 15.0532 18.5625 15.8125C18.5625 16.5718 17.9468 17.1875 17.1875 17.1875Z" fill="white"/>
</svg>
