<svg width="22" height="22" viewBox="0 0 22 22" fill="none" xmlns="http://www.w3.org/2000/svg">
<g clip-path="url(#clip0_268_483)">
<path d="M17.0712 15.0097L19.4778 12.603C20.0587 12.0221 19.8196 11.0296 19.0366 10.778L17.6 10.3162V5.5002C17.6 4.89269 17.1075 4.4002 16.5 4.4002H14.3V3.0252C14.3 2.56955 13.9306 2.2002 13.475 2.2002H8.525C8.06936 2.2002 7.7 2.56955 7.7 3.0252V4.4002H5.5C4.89249 4.4002 4.4 4.89269 4.4 5.5002V10.3162L2.9634 10.778C2.18127 11.0293 1.94061 12.0214 2.52216 12.603L4.92883 15.0097C4.32534 16.5101 2.94205 17.6002 0.825 17.6002C0.369359 17.6002 0 17.9696 0 18.4252V18.9752C0 19.4308 0.369359 19.8002 0.825 19.8002C2.92267 19.8002 4.52028 19.0917 5.74949 17.7585C6.24515 18.9557 7.42572 19.8002 8.8 19.8002H13.2C14.5743 19.8002 15.7549 18.9557 16.2505 17.7585C17.4795 19.0915 19.077 19.8002 21.175 19.8002C21.6306 19.8002 22 19.4308 22 18.9752V18.4252C22 17.9696 21.6306 17.6002 21.175 17.6002C19.0844 17.6002 17.6845 16.5345 17.0712 15.0097ZM6.6 6.6002H15.4V9.60908L11.3366 8.303C11.1177 8.23263 10.8823 8.23263 10.6634 8.303L6.6 9.60908V6.6002Z" fill="white"/>
</g>
<defs>
<clipPath id="clip0_268_483">
<rect width="22" height="22" fill="white"/>
</clipPath>
</defs>
</svg>
