<svg width="22" height="20" viewBox="0 0 22 20" fill="none" xmlns="http://www.w3.org/2000/svg">
<path d="M18.3332 7.33333H13.968L9.95375 0.307847C9.90022 0.214312 9.82293 0.13658 9.72971 0.0825201C9.63648 0.0284606 9.53062 -6.75762e-06 9.42285 1.20325e-09L6.92111 1.20325e-09C6.51511 1.20325e-09 6.22216 0.388437 6.33368 0.778785L8.20636 7.33333H4.27768L2.62768 5.13333C2.51233 4.97941 2.33091 4.88889 2.13879 4.88889H0.611392C0.213788 4.88889 -0.0780179 5.26243 0.018614 5.64819L1.22212 9.77778L0.018614 13.9074C-0.0780179 14.2931 0.213788 14.6667 0.611392 14.6667H2.13879C2.33129 14.6667 2.51233 14.5761 2.62768 14.4222L4.27768 12.2222H8.20636L6.33368 18.7764C6.22216 19.1667 6.51511 19.5556 6.92111 19.5556H9.42285C9.64209 19.5556 9.84452 19.4379 9.95337 19.2477L13.968 12.2222H18.3332C19.6834 12.2222 21.9999 11.128 21.9999 9.77778C21.9999 8.4276 19.6834 7.33333 18.3332 7.33333Z" fill="white"/>
</svg>
