<svg width="22" height="22" viewBox="0 0 22 22" fill="none" xmlns="http://www.w3.org/2000/svg">
<g clip-path="url(#clip0_268_784)">
<path d="M21.3889 3.66661C21.7265 3.66661 22 3.39314 22 3.0555V1.83328C22 1.49564 21.7265 1.22217 21.3889 1.22217H0.611111C0.273472 1.22217 0 1.49564 0 1.83328V3.0555C0 3.39314 0.273472 3.66661 0.611111 3.66661H1.22146V18.3333H0.611111C0.273472 18.3333 0 18.6068 0 18.9444V20.1666C0 20.5043 0.273472 20.7777 0.611111 20.7777H9.77778V17.7222C9.77778 17.3861 10.0528 17.1111 10.3889 17.1111H11.6111C11.9472 17.1111 12.2222 17.3861 12.2222 17.7222V20.7777H21.3889C21.7265 20.7777 22 20.5043 22 20.1666V18.9444C22 18.6068 21.7265 18.3333 21.3889 18.3333H20.7778V3.66661H21.3889ZM9.77778 5.37772C9.77778 5.13328 10.0222 4.88883 10.2667 4.88883H11.7333C11.9778 4.88883 12.2222 5.13328 12.2222 5.37772V6.84439C12.2222 7.08883 11.9778 7.33328 11.7333 7.33328H10.2667C10.0222 7.33328 9.77778 7.08883 9.77778 6.84439V5.37772ZM9.77778 9.04439C9.77778 8.79995 10.0222 8.5555 10.2667 8.5555H11.7333C11.9778 8.5555 12.2222 8.79995 12.2222 9.04439V10.5111C12.2222 10.7555 11.9778 10.9999 11.7333 10.9999H10.2667C10.0222 10.9999 9.77778 10.7555 9.77778 10.5111V9.04439ZM4.88889 5.37772C4.88889 5.13328 5.13333 4.88883 5.37778 4.88883H6.84444C7.08889 4.88883 7.33333 5.13328 7.33333 5.37772V6.84439C7.33333 7.08883 7.08889 7.33328 6.84444 7.33328H5.37778C5.13333 7.33328 4.88889 7.08883 4.88889 6.84439V5.37772ZM6.84444 10.9999H5.37778C5.13333 10.9999 4.88889 10.7555 4.88889 10.5111V9.04439C4.88889 8.79995 5.13333 8.5555 5.37778 8.5555H6.84444C7.08889 8.5555 7.33333 8.79995 7.33333 9.04439V10.5111C7.33333 10.7555 7.08889 10.9999 6.84444 10.9999ZM7.33333 15.8888C7.33333 13.8638 8.97493 12.2222 11 12.2222C13.0251 12.2222 14.6667 13.8638 14.6667 15.8888H7.33333ZM17.1111 10.5111C17.1111 10.7555 16.8667 10.9999 16.6222 10.9999H15.1556C14.9111 10.9999 14.6667 10.7555 14.6667 10.5111V9.04439C14.6667 8.79995 14.9111 8.5555 15.1556 8.5555H16.6222C16.8667 8.5555 17.1111 8.79995 17.1111 9.04439V10.5111ZM17.1111 6.84439C17.1111 7.08883 16.8667 7.33328 16.6222 7.33328H15.1556C14.9111 7.33328 14.6667 7.08883 14.6667 6.84439V5.37772C14.6667 5.13328 14.9111 4.88883 15.1556 4.88883H16.6222C16.8667 4.88883 17.1111 5.13328 17.1111 5.37772V6.84439Z" fill="white"/>
</g>
<defs>
<clipPath id="clip0_268_784">
<rect width="22" height="22" fill="white"/>
</clipPath>
</defs>
</svg>
