<svg width="22" height="22" viewBox="0 0 22 22" fill="none" xmlns="http://www.w3.org/2000/svg">
<g clip-path="url(#clip0_268_717)">
<path d="M18.3332 8.5555H13.968L9.95375 1.53002C9.90022 1.43648 9.82293 1.35875 9.72971 1.30469C9.63648 1.25063 9.53062 1.22216 9.42285 1.22217L6.92111 1.22217C6.51511 1.22217 6.22216 1.61061 6.33368 2.00095L8.20636 8.5555H4.27768L2.62768 6.3555C2.51233 6.20158 2.33091 6.11106 2.13879 6.11106H0.611392C0.213788 6.11106 -0.0780179 6.4846 0.018614 6.87036L1.22212 10.9999L0.018614 15.1295C-0.0780179 15.5153 0.213788 15.8888 0.611392 15.8888H2.13879C2.33129 15.8888 2.51233 15.7983 2.62768 15.6444L4.27768 13.4444H8.20636L6.33368 19.9986C6.22216 20.3889 6.51511 20.7777 6.92111 20.7777H9.42285C9.64209 20.7777 9.84452 20.6601 9.95337 20.4699L13.968 13.4444H18.3332C19.6834 13.4444 21.9999 12.3501 21.9999 10.9999C21.9999 9.64977 19.6834 8.5555 18.3332 8.5555Z" fill="white"/>
</g>
<defs>
<clipPath id="clip0_268_717">
<rect width="22" height="22" fill="white"/>
</clipPath>
</defs>
</svg>
