<svg width="22" height="22" viewBox="0 0 22 22" fill="none" xmlns="http://www.w3.org/2000/svg">
<g clip-path="url(#clip0_268_773)">
<path d="M5.53137 8.39266L1.97312 6.16859C1.62766 5.95289 1.15715 6.07535 0.987852 6.44574C0.435542 7.65499 0.108633 8.9549 0.0232031 10.2816C-0.00214843 10.6721 0.326133 11 0.717148 11H4.8907C5.23273 11 5.4957 10.7314 5.53566 10.3916C5.5825 9.99066 5.67488 9.60394 5.80379 9.23398C5.91379 8.91859 5.81453 8.56969 5.53137 8.39266ZM13.7083 0.34375C12.8416 0.121172 11.9354 0 11 0C10.0646 0 9.15836 0.121172 8.29168 0.34375C7.89766 0.444727 7.69398 0.885156 7.84523 1.26285L9.45527 5.73289C9.50321 5.86598 9.59103 5.98105 9.70676 6.06241C9.82249 6.14376 9.96049 6.18745 10.102 6.1875H11.898C12.1881 6.1875 12.4468 6.00574 12.5447 5.73289L14.1548 1.26285C14.306 0.885156 14.1023 0.445156 13.7083 0.34375ZM4.8125 12.375H0.6875C0.307656 12.375 0 12.6827 0 13.0625V15.8125C0 16.1923 0.307656 16.5 0.6875 16.5H4.8125C5.19234 16.5 5.5 16.1923 5.5 15.8125V13.0625C5.5 12.6827 5.19234 12.375 4.8125 12.375ZM4.8125 17.875H0.6875C0.307656 17.875 0 18.1827 0 18.5625V21.3125C0 21.6923 0.307656 22 0.6875 22H4.8125C5.19234 22 5.5 21.6923 5.5 21.3125V18.5625C5.5 18.1827 5.19234 17.875 4.8125 17.875ZM8.13441 5.68605L6.57379 1.78449C6.42211 1.40508 5.96664 1.22633 5.61043 1.42742C4.43644 2.09043 3.39361 2.96258 2.53344 4.00082C2.27305 4.31535 2.36801 4.79488 2.71477 5.01145L6.27816 7.23852C6.55789 7.4134 6.90809 7.35109 7.14227 7.11863C7.36484 6.89734 7.6059 6.69539 7.86371 6.51492C8.13355 6.32543 8.25688 5.99199 8.13441 5.68605ZM17.1093 11H21.2829C21.6739 11 22.0021 10.6721 21.9768 10.2816C21.8914 8.9549 21.5645 7.65497 21.0121 6.44574C20.8429 6.07535 20.3723 5.95289 20.0269 6.16859L16.4686 8.39266C16.1855 8.56969 16.0862 8.91859 16.1962 9.23398C16.3255 9.60394 16.4175 9.99109 16.4643 10.3916C16.5043 10.7314 16.7673 11 17.1093 11ZM19.4661 4.00082C18.606 2.96258 17.5631 2.09043 16.3891 1.42742C16.0334 1.22633 15.5779 1.40508 15.4258 1.78449L13.8652 5.68605C13.7427 5.99199 13.866 6.32543 14.1359 6.51449C14.3937 6.69496 14.6347 6.89691 14.8573 7.1182C15.0911 7.35066 15.4417 7.41297 15.7214 7.23809L19.2848 5.01102C19.6316 4.79488 19.727 4.31535 19.4661 4.00082ZM21.3125 12.375H17.1875C16.8077 12.375 16.5 12.6827 16.5 13.0625V15.8125C16.5 16.1923 16.8077 16.5 17.1875 16.5H21.3125C21.6923 16.5 22 16.1923 22 15.8125V13.0625C22 12.6827 21.6923 12.375 21.3125 12.375ZM21.3125 17.875H17.1875C16.8077 17.875 16.5 18.1827 16.5 18.5625V21.3125C16.5 21.6923 16.8077 22 17.1875 22H21.3125C21.6923 22 22 21.6923 22 21.3125V18.5625C22 18.1827 21.6923 17.875 21.3125 17.875Z" fill="white"/>
</g>
<defs>
<clipPath id="clip0_268_773">
<rect width="22" height="22" fill="white"/>
</clipPath>
</defs>
</svg>
