<svg width="35" height="35" viewBox="0 0 35 35" fill="none" xmlns="http://www.w3.org/2000/svg">
<rect width="35" height="35" rx="17.5" fill="#162B75"/>
<path d="M19.7528 25.1908C20.543 25.7004 21.4845 25.9226 22.4192 25.8199C23.3538 25.717 24.2245 25.2955 24.885 24.6262L25.4623 24.0616C25.7155 23.8027 25.8572 23.455 25.8572 23.093C25.8572 22.7309 25.7155 22.3831 25.4623 22.1243L23.0117 19.6994C22.755 19.447 22.4094 19.3057 22.0495 19.3057C21.6895 19.3057 21.3439 19.447 21.0872 19.6994C20.8283 19.9525 20.4806 20.0942 20.1185 20.0942C19.7564 20.0942 19.4087 19.9525 19.1498 19.6994L15.3007 15.8503C15.1723 15.7237 15.0703 15.5729 15.0007 15.4066C14.9312 15.2403 14.8953 15.0618 14.8953 14.8816C14.8953 14.7013 14.9312 14.5228 15.0007 14.3565C15.0703 14.1902 15.1723 14.0394 15.3007 13.9129C15.553 13.6562 15.6944 13.3106 15.6944 12.9506C15.6944 12.5906 15.553 12.2451 15.3007 11.9883L12.863 9.55058C12.604 9.29745 12.2564 9.15573 11.8943 9.15573C11.5321 9.15573 11.1845 9.29745 10.9255 9.55058L10.361 10.1279C9.69176 10.7884 9.27031 11.6591 9.16745 12.5938C9.06459 13.5284 9.28676 14.4699 9.79655 15.2601C12.4524 19.1743 15.8318 22.5449 19.7528 25.1908Z" fill="white"/>
</svg>
