<svg width="27" height="26" viewBox="0 0 27 26" fill="none" xmlns="http://www.w3.org/2000/svg">
<path d="M18.7412 15.447L16.1507 14.3368C16.04 14.2896 15.917 14.2797 15.8002 14.3085C15.6834 14.3373 15.5792 14.4032 15.5031 14.4964L14.3558 15.8981C12.5554 15.0492 11.1064 13.6002 10.2575 11.7997L11.6592 10.6525C11.7525 10.5766 11.8186 10.4723 11.8474 10.3554C11.8762 10.2386 11.8662 10.1155 11.8188 10.0049L10.7086 7.41438C10.6565 7.29513 10.5645 7.19776 10.4484 7.13907C10.3323 7.08038 10.1994 7.06404 10.0725 7.09288L7.66703 7.64799C7.54471 7.67623 7.43558 7.7451 7.35744 7.84336C7.27931 7.94161 7.23679 8.06345 7.23682 8.18899C7.23682 14.1217 12.0454 18.9211 17.9689 18.9211C18.0945 18.9212 18.2164 18.8787 18.3147 18.8005C18.413 18.7224 18.4819 18.6132 18.5101 18.4909L19.0652 16.0854C19.0939 15.9579 19.0772 15.8244 19.0181 15.7079C18.9589 15.5914 18.861 15.4991 18.7412 15.447Z" fill="#FF0004"/>
</svg>
